<svg width="747" height="754" viewBox="0 0 747 754" fill="none" xmlns="http://www.w3.org/2000/svg">
<path d="M372.649 753.258C164.629 752.507 -1.78784 582.035 0.0145026 373.113C1.66665 167.947 167.332 -2.52501 378.056 0.0283152C583.974 2.43144 748.888 172.453 746.485 381.074C744.232 585.339 580.069 753.108 372.649 753.258ZM319.48 557.553C317.077 557.103 316.025 556.953 314.824 556.802C286.137 552.747 259.252 544.186 235.22 527.064C209.537 508.74 193.766 484.108 187.308 453.919C180.699 423.128 183.253 392.038 188.059 361.248C191.363 340.071 198.573 320.095 215.094 304.925C217.497 302.672 217.347 300.87 216.146 297.866C207.134 272.933 208.185 247.851 215.695 222.768C217.197 217.812 219.6 215.709 224.857 217.661C231.165 219.914 237.624 221.867 243.481 225.321C259.552 234.784 271.868 247.851 282.682 262.72C285.386 266.325 287.188 266.925 290.943 264.372C300.255 257.914 311.219 255.961 321.883 254.009C347.717 249.202 373.7 250.104 399.684 251.305C414.854 252.056 429.873 254.76 444.292 260.167C448.798 261.819 452.853 267.676 457.059 265.423C461.264 263.321 463.818 257.613 467.122 253.708C480.339 237.787 495.509 224.57 515.935 218.112C522.544 216.009 525.548 217.061 527.801 224.12C535.311 248.602 536.362 272.783 526.9 296.814C525.398 300.569 525.698 303.273 528.852 306.126C541.318 317.691 548.528 332.561 552.283 348.932C558.741 376.868 560.393 405.405 558.591 433.943C556.788 461.278 547.927 486.211 529.603 507.238C504.971 535.475 472.829 549.443 436.632 555.601C432.427 556.352 428.071 557.103 423.565 557.854C434.229 574.525 439.336 591.798 439.486 610.422C439.636 631.9 439.486 653.528 439.486 675.006C439.486 688.974 439.486 702.942 439.486 717.061C462.316 714.808 504.971 699.638 534.71 683.417C673.34 607.869 743.331 451.816 708.035 297.265C666.281 113.426 484.394 -2.6752 300.555 37.1266C126.93 74.8256 6.77329 242.143 32.9073 425.982C45.0731 511.443 84.2741 582.936 149.158 639.86C191.964 677.409 241.529 702.492 297.101 715.409C301.457 716.46 303.409 716.16 303.259 710.903C302.958 696.184 302.958 681.314 303.259 666.595C303.259 661.639 302.358 660.137 296.951 661.188C287.188 663.141 277.125 664.192 267.062 663.591C235.22 661.939 209.387 649.323 191.213 622.287C185.055 613.126 181.601 602.462 175.743 593.3C165.38 577.229 156.218 560.257 138.945 549.893C136.692 548.542 133.989 546.439 135.34 543.285C136.542 540.281 139.846 540.731 142.55 540.431C161.775 538.929 177.545 546.138 190.612 559.956C197.521 567.316 201.877 576.478 207.885 584.438C227.861 611.023 266.01 622.438 297.251 611.173C301.757 609.521 303.109 607.268 303.709 602.612C305.512 586.841 308.516 571.371 319.48 557.553Z" fill="#F5F5F5"/>
</svg>
